<?xml version="1.0" encoding="utf-8"?>
<!-- Generator: Adobe Illustrator 16.0.0, SVG Export Plug-In . SVG Version: 6.00 Build 0)  -->
<!DOCTYPE svg PUBLIC "-//W3C//DTD SVG 1.1//EN" "http://www.w3.org/Graphics/SVG/1.1/DTD/svg11.dtd">
<svg version="1.1" xmlns="http://www.w3.org/2000/svg" xmlns:xlink="http://www.w3.org/1999/xlink" x="0px" y="0px" width="512px"
	 height="512px" viewBox="0 0 512 512" enable-background="new 0 0 512 512" xml:space="preserve">
<g id="Layer_3">
</g>
<g id="Layer_4">
</g>
<g id="Layer_2">
	<circle fill="#363636" stroke="#FFFFFF" stroke-width="20" stroke-miterlimit="10" cx="255.762" cy="258.206" r="238.5"/>
</g>
<g id="wedding" display="none">
	<g display="inline">
		<g>
			<path fill="#FFFFFF" d="M337.963,185.933l20.844-20.845l-14.852-17.285h-35.782l-14.854,17.285l20.845,20.845
				c-20.22,2.244-39.444,10.168-55.4,22.923c-15.957-12.755-35.181-20.679-55.402-22.923l20.846-20.845l-14.853-17.285h-35.784
				l-14.852,17.285l20.845,20.845c-53.883,5.942-95.938,51.737-95.938,107.175c0,59.459,48.375,107.836,107.835,107.836
				c24.515,0,48.239-8.346,67.3-23.583c19.061,15.237,42.785,23.583,67.301,23.583c59.46,0,107.835-48.377,107.835-107.836
				C433.898,237.67,391.844,191.875,337.963,185.933z M307.496,164.552l5.452-6.346h26.229l5.451,6.346l-18.565,18.565
				L307.496,164.552z M172.895,164.552l5.453-6.346h26.227l5.452,6.346l-18.565,18.565L172.895,164.552z M281.392,233.6
				c13.162-9.643,29.24-14.92,45.799-14.92c42.077,0,76.31,33.388,76.31,74.428s-34.232,74.429-76.31,74.429
				c-16.558,0-32.637-5.279-45.799-14.922c12.022-17.663,18.355-38.13,18.355-59.509C299.747,271.731,293.414,251.263,281.392,233.6
				z M258.762,324.895c-4.675-9.887-7.127-20.718-7.127-31.787c0-11.068,2.452-21.899,7.127-31.787
				c4.676,9.888,7.128,20.719,7.128,31.787C265.89,304.177,263.438,315.009,258.762,324.895z M236.134,233.6
				c-11.729,17.664-17.905,38.131-17.905,59.508c0,21.378,6.176,41.845,17.905,59.508c-12.839,9.644-28.521,14.922-44.672,14.922
				c-41.041,0-74.428-33.39-74.428-74.43c0-41.04,33.388-74.428,74.428-74.428C207.613,218.68,223.294,223.958,236.134,233.6z"/>
		</g>
	</g>
	<g display="inline">
		<g>
			<rect x="250.762" y="74.361" fill="#FFFFFF" width="10.477" height="32.615"/>
		</g>
	</g>
	<g display="inline">
		<g>
			
				<rect x="282.853" y="95.627" transform="matrix(-0.4198 0.9076 -0.9076 -0.4198 516.2948 -128.3147)" fill="#FFFFFF" width="32.614" height="10.476"/>
		</g>
	</g>
	<g display="inline">
		<g>
			
				<rect x="207.595" y="84.561" transform="matrix(-0.9076 0.4198 -0.4198 -0.9076 448.3481 103.0635)" fill="#FFFFFF" width="10.476" height="32.614"/>
		</g>
	</g>
</g>
<g id="games" display="none">
	<g display="inline">
		<g>
			<path fill="#FFFFFF" d="M435.201,278.545l-23.138-82.623c-4.468-15.965-15.51-29.424-30.295-36.927
				c-14.785-7.505-32.17-8.471-47.695-2.65c-11.351,4.26-20.99,11.749-27.869,21.65c0,0-0.033,0.026-0.1,0.026H205.78
				c-0.061,0-0.093-0.021-0.096-0.021c-6.877-9.905-16.514-17.394-27.872-21.656c-15.526-5.817-32.911-4.854-47.695,2.651
				c-14.782,7.503-25.823,20.962-30.291,36.925l-23.137,82.623c-7.644,27.287,4.289,53.649,28.373,62.686
				c6.062,2.273,12.432,3.346,18.784,3.346c20.663-0.001,41.093-11.354,49.809-29.652l11.102-23.234
				c6.841,9.164,17.742,14.852,29.574,14.852c16.136,0,30.277-10.528,35.112-25.574h12.967
				c4.834,15.046,18.971,25.574,35.104,25.574c11.838,0,22.742-5.694,29.583-14.865l11.128,23.238
				c5.612,11.779,15.365,20.958,27.464,25.844c12.1,4.885,25.493,5.053,37.714,0.473c12.219-4.585,22.199-13.518,28.102-25.156
				C437.403,304.437,438.716,291.11,435.201,278.545z M418.188,309.32c-4.208,8.296-11.322,14.664-20.028,17.931
				c-8.711,3.264-18.258,3.145-26.882-0.338c-8.625-3.482-15.577-10.024-19.584-18.436l-15.519-32.403
				c-1.708-3.569-5.369-5.73-9.323-5.53c-3.941,0.208-7.338,2.743-8.652,6.458c-3.097,8.738-11.41,14.609-20.688,14.609
				c-10.465,0-19.52-7.439-21.528-17.689c-0.896-4.567-4.919-7.883-9.565-7.883h-20.983c-4.648,0-8.67,3.315-9.566,7.885
				c-2.008,10.248-11.067,17.688-21.538,17.688c-9.275,0-17.587-5.869-20.686-14.605c-1.316-3.714-4.714-6.247-8.656-6.455
				c-3.95-0.213-7.615,1.965-9.321,5.536l-15.484,32.405c-8.066,16.932-31.372,25.696-49.878,18.759
				c-16.921-6.349-24.832-24.723-19.242-44.681l23.139-82.626c3.393-12.126,11.445-21.941,22.672-27.64
				c6.36-3.228,13.185-4.854,20.05-4.854c5.256,0,10.535,0.952,15.647,2.869c8.502,3.191,15.712,8.791,20.852,16.193
				c2.799,4.029,7.418,6.434,12.356,6.434h100.325c4.937,0,9.555-2.403,12.352-6.429c5.147-7.408,12.362-13.009,20.86-16.198
				c11.788-4.419,24.466-3.716,35.697,1.983c11.228,5.699,19.28,15.515,22.675,27.642l23.137,82.622
				C423.333,291.524,422.395,301.025,418.188,309.32z"/>
		</g>
	</g>
	<g display="inline">
		<g>
			<circle fill="#FFFFFF" cx="355.869" cy="199.844" r="9.43"/>
		</g>
	</g>
	<g display="inline">
		<g>
			<circle fill="#FFFFFF" cx="355.869" cy="244.372" r="9.431"/>
		</g>
	</g>
	<g display="inline">
		<g>
			<circle fill="#FFFFFF" cx="333.605" cy="222.108" r="9.43"/>
		</g>
	</g>
	<g display="inline">
		<g>
			<circle fill="#FFFFFF" cx="378.134" cy="222.108" r="9.43"/>
		</g>
	</g>
	<g display="inline">
		<g>
			<path fill="#FFFFFF" d="M178.902,214.643h-13.216v-13.215c0-4.123-3.341-7.464-7.464-7.464c-4.122,0-7.463,3.341-7.463,7.464
				v13.215h-13.215c-4.123,0-7.464,3.341-7.464,7.464c0,4.122,3.341,7.463,7.464,7.463h13.215v13.216
				c0,4.122,3.341,7.464,7.463,7.464s7.464-3.341,7.464-7.464v-13.216h13.216c4.122,0,7.464-3.341,7.464-7.463
				C186.365,217.984,183.024,214.643,178.902,214.643z"/>
		</g>
	</g>
	<g display="inline">
		<g>
			<path fill="#FFFFFF" d="M239.021,214.643h-8.165c-4.122,0-7.464,3.341-7.464,7.464c0,4.122,3.341,7.463,7.464,7.463h8.165
				c4.122,0,7.463-3.341,7.463-7.463C246.484,217.984,243.142,214.643,239.021,214.643z"/>
		</g>
	</g>
	<g display="inline">
		<g>
			<path fill="#FFFFFF" d="M281.501,214.643h-8.165c-4.121,0-7.464,3.341-7.464,7.464c0,4.122,3.341,7.463,7.464,7.463h8.165
				c4.122,0,7.464-3.341,7.464-7.463C288.965,217.984,285.623,214.643,281.501,214.643z"/>
		</g>
	</g>
	<g display="inline">
		<g>
			<path fill="#FFFFFF" d="M214.569,254.627c-8.286,0-15.027,6.742-15.027,15.027c0,8.287,6.742,15.028,15.027,15.028
				c8.287,0,15.028-6.741,15.028-15.028C229.596,261.369,222.855,254.627,214.569,254.627z M214.569,273.488
				c-2.112,0-3.833-1.719-3.833-3.834c0-2.111,1.72-3.832,3.833-3.832c2.114,0,3.833,1.719,3.833,3.832
				C218.401,271.767,216.682,273.488,214.569,273.488z"/>
		</g>
	</g>
	<g display="inline">
		<g>
			<path fill="#FFFFFF" d="M297.749,254.627c-8.286,0-15.027,6.742-15.027,15.027c0,8.287,6.741,15.028,15.027,15.028
				c8.285,0,15.027-6.741,15.027-15.028C312.777,261.369,306.034,254.627,297.749,254.627z M297.749,273.488
				c-2.112,0-3.832-1.719-3.832-3.834c0-2.111,1.719-3.832,3.832-3.832s3.832,1.719,3.832,3.832S299.863,273.488,297.749,273.488z"
				/>
		</g>
	</g>
</g>
<g id="education">
	<g>
		<g>
			<path fill="#FFFFFF" d="M399.007,203.72c-1.31-9.845-1.494-26.801,7.649-32.495c0.164-0.104,0.285-0.255,0.429-0.385
				c7.476-2.391,12.649-5.747,8.588-10.262L305.394,127.35l-178.569,24.827c0,0-20.448,2.922-18.621,34.692
				c0.991,17.29,6.415,25.782,11.157,29.961l-14.653,4.416c-4.067,4.516,1.106,7.872,8.583,10.26
				c0.142,0.133,0.262,0.284,0.428,0.388c9.139,5.699,8.962,22.653,7.648,32.499c-32.829,9.322-21.045,12.36-21.045,12.36
				l7.202,1.743c-5.065,4.576-10.096,13.258-9.154,29.719c1.828,31.764,18.624,33.956,18.624,33.956l116.854,37.981l176.378-42.722
				c0,0,11.788-3.042-21.05-12.365c-1.32-9.831-1.504-26.784,7.656-32.497c0.168-0.102,0.291-0.255,0.427-0.383
				c7.477-2.391,12.646-5.743,8.583-10.259l-7.666-2.315c5.112-3.082,12.793-11.141,13.996-32.071
				c0.83-14.396-2.926-22.829-7.273-27.793l15.153-3.667C420.052,216.086,431.84,213.044,399.007,203.72z M251.478,203.313
				l29.66-6.095l100.234-20.598l14.934-3.072c-4.771,8.734-4.571,20.685-3.782,28.367c0.173,1.738,0.372,3.325,0.565,4.531
				l-16.346,4.064l-126.512,31.472L251.478,203.313z M124.071,234.225l14.932,3.072l96.261,19.789l8.41,1.722l0,0l0,0l25.219,5.184
				l1.244,38.669l-130.028-32.35l-12.819-3.186c0.188-1.208,0.388-2.793,0.568-4.535
				C128.642,254.914,128.846,242.958,124.071,234.225z M118.27,185.34c-0.181-8.45,1.325-14.562,4.369-17.668
				c1.937-1.983,4.223-2.396,5.79-2.396c0.829,0,1.425,0.116,1.465,0.116l76.94,25.083l38.387,12.516l-1.259,38.939l-107.69-30.192
				l-5.683-1.592c-0.208-0.059-0.492-0.099-0.71-0.109C129.435,210.005,118.787,209.025,118.27,185.34z M234.126,363.282
				l-113.37-31.784c-0.209-0.062-0.49-0.103-0.708-0.112c-0.451-0.03-11.104-1.009-11.619-24.688
				c-0.183-8.461,1.33-14.566,4.368-17.676c1.942-1.983,4.229-2.396,5.794-2.396c0.83,0,1.424,0.111,1.467,0.111c0,0,0.005,0,0,0
				l115.32,37.605L234.126,363.282z M382.682,323.261c0.179,1.744,0.378,3.328,0.571,4.536l-142.861,35.539l1.249-38.67
				l30.542-6.279l4.511,1.091l16.906-5.494l77.93-16.014l14.938-3.074C381.694,303.629,381.892,315.586,382.682,323.261z
				 M390.551,270.709c-0.26,0.006-0.52,0.039-0.765,0.117l-10.774,3.017L276.42,302.609l-1.255-38.939l33.659-10.979l81.503-26.58
				c0.01-0.005,4.287-0.955,7.427,2.237c3.038,3.106,4.546,9.218,4.368,17.668C401.591,269.694,390.939,270.677,390.551,270.709z"/>
		</g>
	</g>
</g>
</svg>
