<?xml version="1.0" encoding="utf-8"?>
<!-- Generator: Adobe Illustrator 16.0.0, SVG Export Plug-In . SVG Version: 6.00 Build 0)  -->
<!DOCTYPE svg PUBLIC "-//W3C//DTD SVG 1.1//EN" "http://www.w3.org/Graphics/SVG/1.1/DTD/svg11.dtd">
<svg version="1.1" xmlns="http://www.w3.org/2000/svg" xmlns:xlink="http://www.w3.org/1999/xlink" x="0px" y="0px" width="512px"
	 height="512px" viewBox="0 0 512 512" enable-background="new 0 0 512 512" xml:space="preserve">
<g id="Layer_3">
</g>
<g id="Layer_4">
</g>
<g id="layer">
	<circle fill="#363636" stroke="#FFFFFF" stroke-width="20" stroke-miterlimit="10" cx="255.762" cy="258.206" r="238.5"/>
</g>
<g id="countries_2_" display="none">
	<g id="countries_1_" display="inline">
		<g>
			<polygon fill="#FFFFFF" points="335.998,163.917 336.338,166.526 332.431,167.335 331.909,172.891 336.591,172.891 
				342.82,172.291 346.034,168.469 342.618,167.14 340.746,164.986 337.937,160.434 336.591,153.996 331.311,155.074 
				329.828,157.343 329.828,159.901 332.373,161.641 			"/>
			<polygon fill="#FFFFFF" points="331.499,166.056 331.78,162.573 328.68,161.237 324.344,162.241 321.129,167.4 321.129,170.745 
				324.879,170.745 			"/>
			<path fill="#FFFFFF" d="M242.267,180.846l-0.954,2.456h-4.618v2.385h1.098c0,0,0.066,0.505,0.159,1.17l2.832-0.238l1.771-1.098
				l0.461-2.219l2.291-0.194l0.903-1.865l-2.103-0.433L242.267,180.846z"/>
			<polygon fill="#FFFFFF" points="230.366,185.175 230.186,187.508 233.531,187.226 233.879,184.885 231.869,183.302 			"/>
			<path fill="#FFFFFF" d="M431.28,259.623c-0.052-5.137-0.313-10.238-0.796-15.26c-1.625-16.741-5.629-32.788-11.624-47.831
				c-0.449-1.12-0.861-2.254-1.339-3.36c-7.991-18.88-19.211-36.069-32.946-50.902c-0.903-0.968-1.821-1.922-2.738-2.861
				c-2.595-2.695-5.261-5.325-8.021-7.847c-31.228-28.432-72.7-45.787-118.161-45.787c-45.844,0-87.612,17.666-118.927,46.531
				c-7.297,6.727-14.002,14.067-20.086,21.928c-22.948,29.682-36.646,66.862-36.646,107.201c0,96.87,78.805,175.667,175.667,175.667
				c68.136,0,127.287-39.016,156.405-95.863c6.228-12.152,11.077-25.107,14.342-38.685c0.832-3.446,1.547-6.907,2.169-10.411
				c1.77-9.979,2.738-20.238,2.738-30.708C431.322,260.829,431.285,260.229,431.28,259.623z M398.216,189.415l1.019-1.141
				c1.337,2.593,2.587,5.231,3.778,7.904l-1.661-0.065l-3.136,0.434V189.415z M372.834,158.766l0.028-7.847
				c2.76,2.926,5.42,5.939,7.963,9.061l-3.166,4.71l-11.061-0.101l-0.694-2.305L372.834,158.766z M160.932,139.265v-0.296h3.519
				l0.304-1.207h5.758v2.515l-1.655,2.21h-7.934L160.932,139.265L160.932,139.265z M166.552,147.104c0,0,3.519-0.6,3.823-0.6
				c0.303,0,0,3.511,0,3.511l-7.934,0.499l-1.509-1.806L166.552,147.104z M409.408,216.835h-12.854l-7.832-5.831l-8.243,0.801v5.029
				h-2.609l-2.819-2.009l-14.276-3.619v-9.25l-18.093,1.41l-5.605,3.012h-7.183l-3.518-0.354l-8.722,4.841v9.111l-17.824,12.861
				l1.48,5.491h3.611l-0.945,5.231l-2.543,0.932l-0.137,13.67l15.404,17.543h6.706l0.403-1.069h12.052l3.475-3.215h6.835
				l3.751,3.758l10.188,1.055l-1.352,13.547l11.308,19.963l-5.953,11.381l0.404,5.361l4.688,4.674v12.89l6.158,8.281v10.707h5.316
				c-29.594,36.336-74.636,59.608-125.032,59.608c-88.885,0.008-161.203-72.318-161.203-161.21c0-22.377,4.596-43.705,12.869-63.091
				v-5.028l5.765-7.001c2.001-3.78,4.148-7.464,6.438-11.055l0.26,2.926l-6.69,8.128c-2.074,3.916-4.011,7.918-5.767,12.029v9.176
				l6.698,3.223v12.752l6.423,10.961l5.223,0.802l0.672-3.757l-6.163-9.509l-1.208-9.241h3.613l1.525,9.509l8.908,12.999
				l-2.298,4.198l5.665,8.663l14.068,3.482v-2.275l5.628,0.802l-0.535,4.017l4.422,0.809l6.827,1.864l9.646,10.99l12.318,0.933
				l1.207,10.05l-8.432,5.896l-0.397,8.974l-1.207,5.491l12.197,15.268l0.932,5.23c0,0,4.421,1.198,4.964,1.198
				c0.534,0,9.913,7.103,9.913,7.103v27.595l3.346,0.939l-2.276,12.73l5.629,7.507l-1.041,12.615l7.435,13.07l9.544,8.338
				l9.595,0.174l0.939-3.085l-7.052-5.939l0.405-2.948l1.264-3.611l0.267-3.687l-4.768-0.145l-2.407-3.019l3.959-3.809l0.535-2.875
				l-4.421-1.265l0.259-2.674l6.301-0.953l9.581-4.602l3.215-5.896l10.05-12.862l-2.284-10.058l3.086-5.354l9.239,0.283l6.221-4.927
				l2.01-19.408l6.9-8.764l1.205-5.628l-6.291-2.016l-4.155-6.815l-14.198-0.145l-11.256-4.291l-0.535-8.026l-3.758-6.569
				l-10.179-0.15l-5.882-9.233l-5.224-2.552l-0.267,2.817l-9.509,0.564l-3.482-4.848l-9.92-2.017l-8.172,9.444l-12.86-2.182
				l-0.932-14.495l-9.386-1.604l3.764-7.109l-1.076-4.083l-12.334,8.244l-7.759-0.946l-2.768-6.062l1.691-6.25l4.277-7.883
				l9.849-4.985l19.017-0.007l-0.051,5.802l6.835,3.179l-0.542-9.913l4.927-4.957l9.942-6.531l0.679-4.596l9.913-10.317
				l10.542-5.838l-0.932-0.766l7.139-6.719l2.615,0.693l1.199,1.503l2.709-3.006l0.665-0.297l-2.969-0.418l-3.013-1.004v-2.891
				l1.596-1.308h3.519l1.612,0.708l1.394,2.818l1.705-0.26v-0.246l0.492,0.167l4.942-0.759l0.701-2.414l2.817,0.708v2.615
				l-2.616,1.799h0.007l0.383,2.868l8.952,2.76c0,0,0.008,0.037,0.022,0.108l2.06-0.173l0.138-3.88l-7.096-3.229l-0.405-1.864
				l5.89-2.009l0.26-5.636l-6.157-3.75l-0.404-9.501l-8.439,4.147h-3.078l0.809-7.232l-11.488-2.709l-4.754,3.591v10.954
				l-8.547,2.709l-3.426,7.138l-3.713,0.6v-9.133l-8.034-1.112l-4.017-2.616l-1.619-5.917l14.371-8.412l7.03-2.138l0.708,4.725
				l3.916-0.203l0.304-2.376l4.096-0.585l0.073-0.831l-1.764-0.729l-0.404-2.515l5.036-0.426l3.042-3.165l0.166-0.231l0.036,0.014
				l0.925-0.953l10.585-1.337l4.682,3.974l-12.276,6.539l15.622,3.685l2.022-5.223h6.828l2.414-4.551l-4.828-1.208v-5.758
				l-15.136-6.705l-10.448,1.207l-5.896,3.085l0.405,7.5l-6.163-0.938l-0.947-4.148l5.904-5.361l-10.715-0.535l-3.078,0.932
				l-1.337,3.613l4.017,0.68l-0.802,4.017l-6.827,0.405l-1.07,2.672l-9.906,0.275c0,0-0.274-5.622-0.671-5.622
				c-0.398,0,7.767-0.137,7.767-0.137l5.903-5.766l-3.223-1.61l-4.285,4.161l-7.11-0.404l-4.284-5.896h-9.112l-9.508,7.103h8.713
				l0.795,2.55l-2.261,2.103l9.646,0.267l1.473,3.482l-10.859-0.404l-0.528-2.68l-6.828-1.474l-3.62-2.009l-8.128,0.065
				c26.611-19.386,59.333-30.859,94.701-30.859c40.766,0,78.012,15.238,106.428,40.273l-1.914,3.425l-7.434,2.911l-3.139,3.404
				l0.723,3.966l3.838,0.535l2.313,5.78l6.618-2.666l1.09,7.731h-1.993l-5.433-0.802l-6.026,1.012l-5.83,8.237l-8.339,1.307
				l-1.206,7.139l3.52,0.831l-1.021,4.588l-8.279-1.662l-7.593,1.662l-1.614,4.227l1.317,8.873l4.457,2.088l7.478-0.043l5.052-0.456
				l1.538-4.017l7.89-10.253l5.195,1.063l5.115-4.624l0.953,3.613l12.588,8.49l-1.538,2.066l-5.673-0.303l2.181,3.092l3.492,0.766
				l4.089-1.706l-0.088-4.928l1.814-0.91l-1.46-1.547l-8.395-4.682l-2.211-6.221h6.978l2.232,2.211l6.014,5.181l0.253,6.265
				l6.228,6.633l2.318-9.09l4.313-2.356l0.81,7.435l4.213,4.624l8.402-0.145c1.626,4.184,3.084,8.439,4.363,12.782L409.408,216.835z
				 M175.808,165.586l4.22-2.008l3.814,0.91l-1.314,5.123l-4.119,1.308L175.808,165.586z M198.2,177.645v3.317h-9.639l-3.613-1.005
				l0.903-2.312l4.631-1.914h6.33v1.914H198.2z M202.636,182.27v3.215l-2.413,1.554l-3.006,0.556c0,0,0-4.819,0-5.325H202.636z
				 M199.919,180.962v-3.823l3.317,3.021L199.919,180.962z M201.429,188.693v3.128l-2.304,2.312h-5.123l0.802-3.511l2.42-0.209
				l0.499-1.207L201.429,188.693z M188.67,182.27h5.325l-6.828,9.544l-2.818-1.511l0.607-4.017L188.67,182.27z M210.475,187.594
				v3.122h-5.123l-1.402-2.023v-2.905h0.405L210.475,187.594z M205.743,183.302l1.459-1.531l2.464,1.531l-1.972,1.626
				L205.743,183.302z M412.023,224.971l0.508-0.592c0.209,0.91,0.434,1.82,0.635,2.745L412.023,224.971z"/>
			<path fill="#FFFFFF" d="M107.32,193.318v5.028c1.756-4.104,3.692-8.106,5.767-12.029L107.32,193.318z"/>
		</g>
	</g>
</g>
<g id="wedding" display="none">
	<g display="inline">
		<g>
			<path fill="#FFFFFF" d="M335.952,190.736l20.189-20.19l-14.386-16.742h-34.658l-14.387,16.742l20.189,20.19
				c-19.584,2.173-38.205,9.849-53.66,22.203c-15.456-12.354-34.076-20.03-53.663-22.203l20.191-20.19l-14.386-16.742h-34.66
				l-14.386,16.742l20.19,20.19c-52.191,5.755-92.925,50.112-92.925,103.809c0,57.592,46.855,104.45,104.449,104.45
				c23.745,0,46.725-8.084,65.187-22.843c18.462,14.759,41.441,22.843,65.188,22.843c57.593,0,104.448-46.858,104.448-104.45
				C428.874,240.847,388.141,196.491,335.952,190.736z M306.443,170.026l5.28-6.146h25.405l5.28,6.146l-17.982,17.982
				L306.443,170.026z M176.068,170.026l5.281-6.146h25.403l5.281,6.146l-17.982,17.982L176.068,170.026z M281.157,227.941
				c13.403-10.767,29.775-16.66,46.637-16.66c42.847,0,77.706,37.282,77.706,83.109c0,45.829-34.859,83.112-77.706,83.112
				c-16.86,0-33.233-5.896-46.637-16.663c12.243-19.725,18.691-42.579,18.691-66.451
				C299.849,270.52,293.401,247.665,281.157,227.941z M257.999,339.5c-12.133-13.996-18.499-29.331-18.499-45.001
				c0-15.668,6.366-31.001,18.499-44.999c12.136,13.998,18.501,29.331,18.501,44.999C276.5,310.169,270.135,325.504,257.999,339.5z
				 M237.321,228.194c-12.587,19.629-19.216,42.374-19.216,66.129c0,23.757,6.629,46.5,19.216,66.129
				c-13.779,10.716-30.609,16.582-47.943,16.582c-44.045,0-79.877-37.104-79.877-82.711c0-45.605,35.832-82.709,79.877-82.709
				C206.712,211.614,223.541,217.479,237.321,228.194z"/>
		</g>
	</g>
	<g display="inline">
		<g>
			<rect x="250.762" y="74.361" fill="#FFFFFF" width="10.477" height="32.615"/>
		</g>
	</g>
	<g display="inline">
		<g>
			
				<rect x="282.853" y="95.627" transform="matrix(-0.4198 0.9076 -0.9076 -0.4198 516.2948 -128.3147)" fill="#FFFFFF" width="32.614" height="10.476"/>
		</g>
	</g>
	<g display="inline">
		<g>
			
				<rect x="207.595" y="84.561" transform="matrix(-0.9076 0.4198 -0.4198 -0.9076 448.3481 103.0635)" fill="#FFFFFF" width="10.476" height="32.614"/>
		</g>
	</g>
</g>
<g id="games" display="none">
	<g display="inline">
		<g>
			<path fill="#FFFFFF" d="M435.201,278.545l-23.138-82.623c-4.468-15.965-15.51-29.424-30.295-36.927
				c-14.785-7.505-32.17-8.471-47.695-2.65c-11.351,4.26-20.99,11.749-27.869,21.65c0,0-0.033,0.026-0.1,0.026H205.78
				c-0.061,0-0.093-0.021-0.096-0.021c-6.877-9.905-16.514-17.394-27.872-21.656c-15.526-5.817-32.911-4.854-47.695,2.651
				c-14.782,7.503-25.823,20.962-30.291,36.925l-23.137,82.623c-7.644,27.287,4.289,53.649,28.373,62.686
				c6.062,2.273,12.432,3.346,18.784,3.346c20.663-0.001,41.093-11.354,49.809-29.652l11.102-23.234
				c6.841,9.164,17.742,14.852,29.574,14.852c16.136,0,30.277-10.528,35.112-25.574h12.967
				c4.834,15.046,18.971,25.574,35.104,25.574c11.838,0,22.742-5.694,29.583-14.865l11.128,23.238
				c5.612,11.779,15.365,20.958,27.464,25.844c12.1,4.885,25.493,5.053,37.714,0.473c12.219-4.585,22.199-13.518,28.102-25.156
				C437.403,304.437,438.716,291.11,435.201,278.545z M418.188,309.32c-4.208,8.296-11.322,14.664-20.028,17.931
				c-8.711,3.264-18.258,3.145-26.882-0.338c-8.625-3.482-15.577-10.024-19.584-18.436l-15.519-32.403
				c-1.708-3.569-5.369-5.73-9.323-5.53c-3.941,0.208-7.338,2.743-8.652,6.458c-3.097,8.738-11.41,14.609-20.688,14.609
				c-10.465,0-19.52-7.439-21.528-17.689c-0.896-4.567-4.919-7.883-9.565-7.883h-20.983c-4.648,0-8.67,3.315-9.566,7.885
				c-2.008,10.248-11.067,17.688-21.538,17.688c-9.275,0-17.587-5.869-20.686-14.605c-1.316-3.714-4.714-6.247-8.656-6.455
				c-3.95-0.213-7.615,1.965-9.321,5.536l-15.484,32.405c-8.066,16.932-31.372,25.696-49.878,18.759
				c-16.921-6.349-24.832-24.723-19.242-44.681l23.139-82.626c3.393-12.126,11.445-21.941,22.672-27.64
				c6.36-3.228,13.185-4.854,20.05-4.854c5.256,0,10.535,0.952,15.647,2.869c8.502,3.191,15.712,8.791,20.852,16.193
				c2.799,4.029,7.418,6.434,12.356,6.434h100.325c4.937,0,9.555-2.403,12.352-6.429c5.147-7.408,12.362-13.009,20.86-16.198
				c11.788-4.419,24.466-3.716,35.697,1.983c11.228,5.699,19.28,15.515,22.675,27.642l23.137,82.622
				C423.333,291.524,422.395,301.025,418.188,309.32z"/>
		</g>
		<g>
			<g>
				<path fill="#FFFFFF" d="M442.365,281.293l-24.03-88.823c-4.642-17.163-16.109-31.632-31.465-39.698
					c-15.355-8.068-33.412-9.106-49.537-2.849c-11.788,4.58-21.799,12.63-28.943,23.274c0,0-0.035,0.028-0.104,0.028H204.089
					c-0.063,0-0.097-0.022-0.1-0.022c-7.143-10.649-17.151-18.7-28.948-23.281c-16.125-6.254-34.181-5.219-49.536,2.85
					c-15.352,8.066-26.819,22.535-31.459,39.696l-24.03,88.823c-7.939,29.335,4.454,57.678,29.468,67.392
					c6.296,2.444,12.912,3.597,19.508,3.597c21.46,0,42.679-12.205,51.732-31.878l11.53-24.978
					c7.105,9.851,18.427,15.965,30.716,15.965c16.757,0,31.444-11.317,36.466-27.493h13.467
					c5.021,16.176,19.703,27.493,36.459,27.493c12.295,0,23.619-6.12,30.726-15.979l11.556,24.981
					c5.829,12.664,15.959,22.532,28.524,27.784c12.566,5.251,26.478,5.431,39.169,0.508c12.691-4.929,23.057-14.532,29.188-27.044
					C444.651,309.131,446.015,294.803,442.365,281.293z M424.696,314.379c-4.372,8.92-11.76,15.766-20.802,19.278
					c-9.047,3.508-18.963,3.381-27.919-0.364c-8.959-3.743-16.179-10.777-20.34-19.818l-16.118-34.837
					c-1.774-3.836-5.576-6.161-9.683-5.944c-4.094,0.223-7.621,2.947-8.986,6.942c-3.216,9.394-11.852,15.705-21.486,15.705
					c-10.869,0-20.273-7.998-22.358-19.016c-0.931-4.91-5.11-8.476-9.935-8.476h-21.794c-4.827,0-9.006,3.565-9.936,8.478
					c-2.087,11.016-11.495,19.014-22.369,19.014c-9.634,0-18.268-6.31-21.484-15.701c-1.367-3.993-4.896-6.716-8.99-6.939
					c-4.102-0.229-7.909,2.112-9.681,5.953l-16.082,34.836c-8.377,18.202-32.583,27.626-51.804,20.168
					c-17.574-6.827-25.79-26.579-19.984-48.035l24.031-88.827c3.524-13.036,11.887-23.588,23.546-29.714
					c6.607-3.47,13.694-5.218,20.825-5.218c5.459,0,10.941,1.023,16.251,3.084c8.83,3.43,16.318,9.45,21.656,17.409
					c2.907,4.331,7.704,6.917,12.834,6.917h104.197c5.126,0,9.924-2.583,12.828-6.912c5.347-7.963,12.839-13.985,21.665-17.414
					c12.243-4.751,25.411-3.995,37.074,2.132c11.661,6.128,20.024,16.68,23.552,29.717l24.029,88.823
					C430.038,295.249,429.065,305.461,424.696,314.379z"/>
			</g>
		</g>
	</g>
	<g display="inline">
		<g>
			<circle fill="#FFFFFF" cx="355.869" cy="199.844" r="9.43"/>
		</g>
	</g>
	<g display="inline">
		<g>
			<circle fill="#FFFFFF" cx="355.869" cy="244.372" r="9.431"/>
		</g>
	</g>
	<g display="inline">
		<g>
			<circle fill="#FFFFFF" cx="333.605" cy="222.108" r="9.43"/>
		</g>
	</g>
	<g display="inline">
		<g>
			<circle fill="#FFFFFF" cx="378.134" cy="222.108" r="9.43"/>
		</g>
	</g>
	<g display="inline">
		<g>
			<path fill="#FFFFFF" d="M178.902,214.643h-13.216v-13.215c0-4.123-3.341-7.464-7.464-7.464c-4.122,0-7.463,3.341-7.463,7.464
				v13.215h-13.215c-4.123,0-7.464,3.341-7.464,7.464c0,4.122,3.341,7.463,7.464,7.463h13.215v13.216
				c0,4.122,3.341,7.464,7.463,7.464s7.464-3.341,7.464-7.464v-13.216h13.216c4.122,0,7.464-3.341,7.464-7.463
				C186.365,217.984,183.024,214.643,178.902,214.643z"/>
		</g>
	</g>
	<g display="inline">
		<g>
			<path fill="#FFFFFF" d="M239.021,214.643h-8.165c-4.122,0-7.464,3.341-7.464,7.464c0,4.122,3.341,7.463,7.464,7.463h8.165
				c4.122,0,7.463-3.341,7.463-7.463C246.484,217.984,243.142,214.643,239.021,214.643z"/>
		</g>
	</g>
	<g display="inline">
		<g>
			<path fill="#FFFFFF" d="M281.501,214.643h-8.165c-4.121,0-7.464,3.341-7.464,7.464c0,4.122,3.341,7.463,7.464,7.463h8.165
				c4.122,0,7.464-3.341,7.464-7.463C288.965,217.984,285.623,214.643,281.501,214.643z"/>
		</g>
	</g>
	<g display="inline">
		<g>
			<path fill="#FFFFFF" d="M214.569,254.627c-8.286,0-15.027,6.742-15.027,15.027c0,8.287,6.742,15.028,15.027,15.028
				c8.287,0,15.028-6.741,15.028-15.028C229.596,261.369,222.855,254.627,214.569,254.627z M214.569,273.488
				c-2.112,0-3.833-1.719-3.833-3.834c0-2.111,1.72-3.832,3.833-3.832c2.114,0,3.833,1.719,3.833,3.832
				C218.401,271.767,216.682,273.488,214.569,273.488z"/>
		</g>
	</g>
	<g display="inline">
		<g>
			<path fill="#FFFFFF" d="M297.749,254.627c-8.286,0-15.027,6.742-15.027,15.027c0,8.287,6.741,15.028,15.027,15.028
				c8.285,0,15.027-6.741,15.027-15.028C312.777,261.369,306.034,254.627,297.749,254.627z M297.749,273.488
				c-2.112,0-3.832-1.719-3.832-3.834c0-2.111,1.719-3.832,3.832-3.832s3.832,1.719,3.832,3.832S299.863,273.488,297.749,273.488z"
				/>
		</g>
	</g>
</g>
<g id="food">
	<g>
		<g>
			<path fill="#FFFFFF" d="M209.03,253.077c0.204-3.326,0.409-6.658,0.845-10.022c0.806-7.979,2.539-15.99,4.309-23.783
				c1.077-3.887,2.245-7.727,3.47-11.48c1.565-3.664,3.098-7.308,4.626-10.868c3.459-6.948,7.329-13.44,11.945-18.875
				c1.096-1.401,2.183-2.757,3.247-4.12c1.214-1.214,2.431-2.392,3.602-3.569c2.473-2.235,4.618-4.656,7.086-6.431
				c4.92-3.645,9.274-7.109,13.706-9.254c4.271-2.383,7.935-4.451,11.237-5.619c6.474-2.605,10.148-3.915,10.148-3.915
				s-3.133,2.487-8.609,6.521c-2.83,1.846-5.828,4.76-9.397,7.746c-3.721,2.847-7.091,6.928-11.096,10.841
				c-2.003,1.998-3.559,4.508-5.453,6.819c-0.921,1.177-1.865,2.364-2.839,3.569c-0.787,1.33-1.604,2.662-2.429,4.024
				c-3.536,5.24-6.179,11.391-8.933,17.631c-1.13,3.265-2.272,6.578-3.441,9.924c-0.797,3.478-1.68,6.994-2.643,10.498
				c-1.447,7.199-2.866,14.541-3.479,22.091c-0.426,2.738-0.631,5.5-0.887,8.282c59.994,0.01,106.427,0.047,171.4,0.047
				c0.218-2.848,0.341-5.734,0.341-8.633c0-54.72-39.876-99.788-91.188-105.758c3.313-3.099,5.41-7.494,5.41-12.383
				c0.019-9.396-7.594-16.999-16.972-16.999c-9.388,0-17.009,7.603-17.009,16.999c0,4.899,2.088,9.284,5.41,12.383
				c-51.309,5.97-91.174,51.038-91.174,105.758c0,2.891,0.104,5.737,0.318,8.577C196.919,253.077,203.036,253.077,209.03,253.077z"
				/>
			<rect x="171.561" y="259.408" fill="#FFFFFF" width="242.954" height="21.433"/>
			<path fill="#FFFFFF" d="M314.773,296.055c-12.348,6-55.403,21.527-55.403,21.527l-50.895-3.188c0,0,29.112-8.098,40.397-10.631
				c11.305-2.525,6.388-15.273,0.137-15.273c-6.249,0-60.718,2.25-60.718,2.25l-36.169,13.023l9.572,60.586
				c0,0,7.447-12.748,14.875-12.748c7.455,0,72.033,1.719,80.799,0c8.771-1.736,62.191-38.281,68.589-42.543
				C332.324,304.817,327.169,290.05,314.773,296.055z"/>
			<polygon fill="#FFFFFF" points="103.485,310.276 103.485,388.811 158.899,378.436 145.036,302.966 			"/>
		</g>
	</g>
</g>
<g id="sports" display="none">
	<g transform="translate(-1)" display="inline">
		<g>
			<g>
				<path fill="#FFFFFF" d="M394.272,173.857l-0.717-0.786c-6.737-7.373-17.717-7.39-24.494,0.022l-26.367,29.165
					c-1.39,1.525-3.611,1.586-5.061,0.127l-36.968-37.357c-3.59-3.632-8.263-5.628-13.156-5.628h-54.992
					c-1.298,0-2.541,0.542-3.48,1.515l-46.609,48.439c-6.828,7.479-7.297,19.536-1.04,26.876c3.344,3.924,7.858,6.086,12.711,6.086
					h0.086c4.813-0.027,9.439-2.267,12.635-6.092l32.918-38.131h11.782l-76.82,93.973H127.32c-11.231,0-20.468,9.193-21.028,20.929
					c-0.298,6.131,1.661,11.956,5.514,16.401c3.798,4.383,9.136,6.893,14.657,6.893h70.703c1.394,0,2.728-0.63,3.687-1.752
					l36.226-42.327l30.464,34.869l-9.197,64.332c-2.317,10.658,2.354,21.514,11.105,25.799c2.696,1.326,5.561,1.989,8.408,1.989
					c3.065,0,6.116-0.769,8.925-2.288c5.424-2.941,9.323-8.32,10.741-15.008l15.712-92.242c0.303-1.792-0.218-3.639-1.398-4.926
					L269.905,258.9l33.312-36.405l23.222,25.411c6.484,7.098,17.787,7.098,24.266,0l43.569-47.683
					c3.217-3.521,4.99-8.208,4.99-13.184C399.261,182.06,397.489,177.378,394.272,173.857z"/>
				<path fill="#FFFFFF" d="M338.571,175.984c16.711,0,30.303-14.875,30.303-33.167s-13.592-33.167-30.303-33.167
					s-30.302,14.875-30.302,33.167C308.27,161.109,321.86,175.984,338.571,175.984z"/>
			</g>
		</g>
	</g>
</g>
</svg>
