<?xml version="1.0" encoding="utf-8"?>
<!-- Generator: Adobe Illustrator 16.0.0, SVG Export Plug-In . SVG Version: 6.00 Build 0)  -->
<!DOCTYPE svg PUBLIC "-//W3C//DTD SVG 1.1//EN" "http://www.w3.org/Graphics/SVG/1.1/DTD/svg11.dtd">
<svg version="1.1" xmlns="http://www.w3.org/2000/svg" xmlns:xlink="http://www.w3.org/1999/xlink" x="0px" y="0px" width="512px"
	 height="512px" viewBox="0 0 512 512" enable-background="new 0 0 512 512" xml:space="preserve">
<g id="Layer_3">
</g>
<g id="Layer_4">
</g>
<g id="layer">
	<circle fill="#363636" stroke="#FFFFFF" stroke-width="20" stroke-miterlimit="10" cx="255.762" cy="258.206" r="238.5"/>
</g>
<g id="countries_2_" display="none">
	<g id="countries_1_" display="inline">
		<g>
			<polygon fill="#FFFFFF" points="335.998,163.917 336.338,166.526 332.431,167.335 331.909,172.891 336.591,172.891 
				342.82,172.291 346.034,168.469 342.618,167.14 340.746,164.986 337.937,160.434 336.591,153.996 331.311,155.074 
				329.828,157.343 329.828,159.901 332.373,161.641 			"/>
			<polygon fill="#FFFFFF" points="331.499,166.056 331.78,162.573 328.68,161.237 324.344,162.241 321.129,167.4 321.129,170.745 
				324.879,170.745 			"/>
			<path fill="#FFFFFF" d="M242.267,180.846l-0.954,2.456h-4.618v2.385h1.098c0,0,0.066,0.505,0.159,1.17l2.832-0.238l1.771-1.098
				l0.461-2.219l2.291-0.194l0.903-1.865l-2.103-0.433L242.267,180.846z"/>
			<polygon fill="#FFFFFF" points="230.366,185.175 230.186,187.508 233.531,187.226 233.879,184.885 231.869,183.302 			"/>
			<path fill="#FFFFFF" d="M431.28,259.623c-0.052-5.137-0.313-10.238-0.796-15.26c-1.625-16.741-5.629-32.788-11.624-47.831
				c-0.449-1.12-0.861-2.254-1.339-3.36c-7.991-18.88-19.211-36.069-32.946-50.902c-0.903-0.968-1.821-1.922-2.738-2.861
				c-2.595-2.695-5.261-5.325-8.021-7.847c-31.228-28.432-72.7-45.787-118.161-45.787c-45.844,0-87.612,17.666-118.927,46.531
				c-7.297,6.727-14.002,14.067-20.086,21.928c-22.948,29.682-36.646,66.862-36.646,107.201c0,96.87,78.805,175.667,175.667,175.667
				c68.136,0,127.287-39.016,156.405-95.863c6.228-12.152,11.077-25.107,14.342-38.685c0.832-3.446,1.547-6.907,2.169-10.411
				c1.77-9.979,2.738-20.238,2.738-30.708C431.322,260.829,431.285,260.229,431.28,259.623z M398.216,189.415l1.019-1.141
				c1.337,2.593,2.587,5.231,3.778,7.904l-1.661-0.065l-3.136,0.434V189.415z M372.834,158.766l0.028-7.847
				c2.76,2.926,5.42,5.939,7.963,9.061l-3.166,4.71l-11.061-0.101l-0.694-2.305L372.834,158.766z M160.932,139.265v-0.296h3.519
				l0.304-1.207h5.758v2.515l-1.655,2.21h-7.934L160.932,139.265L160.932,139.265z M166.552,147.104c0,0,3.519-0.6,3.823-0.6
				c0.303,0,0,3.511,0,3.511l-7.934,0.499l-1.509-1.806L166.552,147.104z M409.408,216.835h-12.854l-7.832-5.831l-8.243,0.801v5.029
				h-2.609l-2.819-2.009l-14.276-3.619v-9.25l-18.093,1.41l-5.605,3.012h-7.183l-3.518-0.354l-8.722,4.841v9.111l-17.824,12.861
				l1.48,5.491h3.611l-0.945,5.231l-2.543,0.932l-0.137,13.67l15.404,17.543h6.706l0.403-1.069h12.052l3.475-3.215h6.835
				l3.751,3.758l10.188,1.055l-1.352,13.547l11.308,19.963l-5.953,11.381l0.404,5.361l4.688,4.674v12.89l6.158,8.281v10.707h5.316
				c-29.594,36.336-74.636,59.608-125.032,59.608c-88.885,0.008-161.203-72.318-161.203-161.21c0-22.377,4.596-43.705,12.869-63.091
				v-5.028l5.765-7.001c2.001-3.78,4.148-7.464,6.438-11.055l0.26,2.926l-6.69,8.128c-2.074,3.916-4.011,7.918-5.767,12.029v9.176
				l6.698,3.223v12.752l6.423,10.961l5.223,0.802l0.672-3.757l-6.163-9.509l-1.208-9.241h3.613l1.525,9.509l8.908,12.999
				l-2.298,4.198l5.665,8.663l14.068,3.482v-2.275l5.628,0.802l-0.535,4.017l4.422,0.809l6.827,1.864l9.646,10.99l12.318,0.933
				l1.207,10.05l-8.432,5.896l-0.397,8.974l-1.207,5.491l12.197,15.268l0.932,5.23c0,0,4.421,1.198,4.964,1.198
				c0.534,0,9.913,7.103,9.913,7.103v27.595l3.346,0.939l-2.276,12.73l5.629,7.507l-1.041,12.615l7.435,13.07l9.544,8.338
				l9.595,0.174l0.939-3.085l-7.052-5.939l0.405-2.948l1.264-3.611l0.267-3.687l-4.768-0.145l-2.407-3.019l3.959-3.809l0.535-2.875
				l-4.421-1.265l0.259-2.674l6.301-0.953l9.581-4.602l3.215-5.896l10.05-12.862l-2.284-10.058l3.086-5.354l9.239,0.283l6.221-4.927
				l2.01-19.408l6.9-8.764l1.205-5.628l-6.291-2.016l-4.155-6.815l-14.198-0.145l-11.256-4.291l-0.535-8.026l-3.758-6.569
				l-10.179-0.15l-5.882-9.233l-5.224-2.552l-0.267,2.817l-9.509,0.564l-3.482-4.848l-9.92-2.017l-8.172,9.444l-12.86-2.182
				l-0.932-14.495l-9.386-1.604l3.764-7.109l-1.076-4.083l-12.334,8.244l-7.759-0.946l-2.768-6.062l1.691-6.25l4.277-7.883
				l9.849-4.985l19.017-0.007l-0.051,5.802l6.835,3.179l-0.542-9.913l4.927-4.957l9.942-6.531l0.679-4.596l9.913-10.317
				l10.542-5.838l-0.932-0.766l7.139-6.719l2.615,0.693l1.199,1.503l2.709-3.006l0.665-0.297l-2.969-0.418l-3.013-1.004v-2.891
				l1.596-1.308h3.519l1.612,0.708l1.394,2.818l1.705-0.26v-0.246l0.492,0.167l4.942-0.759l0.701-2.414l2.817,0.708v2.615
				l-2.616,1.799h0.007l0.383,2.868l8.952,2.76c0,0,0.008,0.037,0.022,0.108l2.06-0.173l0.138-3.88l-7.096-3.229l-0.405-1.864
				l5.89-2.009l0.26-5.636l-6.157-3.75l-0.404-9.501l-8.439,4.147h-3.078l0.809-7.232l-11.488-2.709l-4.754,3.591v10.954
				l-8.547,2.709l-3.426,7.138l-3.713,0.6v-9.133l-8.034-1.112l-4.017-2.616l-1.619-5.917l14.371-8.412l7.03-2.138l0.708,4.725
				l3.916-0.203l0.304-2.376l4.096-0.585l0.073-0.831l-1.764-0.729l-0.404-2.515l5.036-0.426l3.042-3.165l0.166-0.231l0.036,0.014
				l0.925-0.953l10.585-1.337l4.682,3.974l-12.276,6.539l15.622,3.685l2.022-5.223h6.828l2.414-4.551l-4.828-1.208v-5.758
				l-15.136-6.705l-10.448,1.207l-5.896,3.085l0.405,7.5l-6.163-0.938l-0.947-4.148l5.904-5.361l-10.715-0.535l-3.078,0.932
				l-1.337,3.613l4.017,0.68l-0.802,4.017l-6.827,0.405l-1.07,2.672l-9.906,0.275c0,0-0.274-5.622-0.671-5.622
				c-0.398,0,7.767-0.137,7.767-0.137l5.903-5.766l-3.223-1.61l-4.285,4.161l-7.11-0.404l-4.284-5.896h-9.112l-9.508,7.103h8.713
				l0.795,2.55l-2.261,2.103l9.646,0.267l1.473,3.482l-10.859-0.404l-0.528-2.68l-6.828-1.474l-3.62-2.009l-8.128,0.065
				c26.611-19.386,59.333-30.859,94.701-30.859c40.766,0,78.012,15.238,106.428,40.273l-1.914,3.425l-7.434,2.911l-3.139,3.404
				l0.723,3.966l3.838,0.535l2.313,5.78l6.618-2.666l1.09,7.731h-1.993l-5.433-0.802l-6.026,1.012l-5.83,8.237l-8.339,1.307
				l-1.206,7.139l3.52,0.831l-1.021,4.588l-8.279-1.662l-7.593,1.662l-1.614,4.227l1.317,8.873l4.457,2.088l7.478-0.043l5.052-0.456
				l1.538-4.017l7.89-10.253l5.195,1.063l5.115-4.624l0.953,3.613l12.588,8.49l-1.538,2.066l-5.673-0.303l2.181,3.092l3.492,0.766
				l4.089-1.706l-0.088-4.928l1.814-0.91l-1.46-1.547l-8.395-4.682l-2.211-6.221h6.978l2.232,2.211l6.014,5.181l0.253,6.265
				l6.228,6.633l2.318-9.09l4.313-2.356l0.81,7.435l4.213,4.624l8.402-0.145c1.626,4.184,3.084,8.439,4.363,12.782L409.408,216.835z
				 M175.808,165.586l4.22-2.008l3.814,0.91l-1.314,5.123l-4.119,1.308L175.808,165.586z M198.2,177.645v3.317h-9.639l-3.613-1.005
				l0.903-2.312l4.631-1.914h6.33v1.914H198.2z M202.636,182.27v3.215l-2.413,1.554l-3.006,0.556c0,0,0-4.819,0-5.325H202.636z
				 M199.919,180.962v-3.823l3.317,3.021L199.919,180.962z M201.429,188.693v3.128l-2.304,2.312h-5.123l0.802-3.511l2.42-0.209
				l0.499-1.207L201.429,188.693z M188.67,182.27h5.325l-6.828,9.544l-2.818-1.511l0.607-4.017L188.67,182.27z M210.475,187.594
				v3.122h-5.123l-1.402-2.023v-2.905h0.405L210.475,187.594z M205.743,183.302l1.459-1.531l2.464,1.531l-1.972,1.626
				L205.743,183.302z M412.023,224.971l0.508-0.592c0.209,0.91,0.434,1.82,0.635,2.745L412.023,224.971z"/>
			<path fill="#FFFFFF" d="M107.32,193.318v5.028c1.756-4.104,3.692-8.106,5.767-12.029L107.32,193.318z"/>
		</g>
	</g>
</g>
<g id="wedding" display="none">
	<g display="inline">
		<g>
			<path fill="#FFFFFF" d="M335.952,190.736l20.189-20.19l-14.386-16.742h-34.658l-14.387,16.742l20.189,20.19
				c-19.584,2.173-38.205,9.849-53.66,22.203c-15.456-12.354-34.076-20.03-53.663-22.203l20.191-20.19l-14.386-16.742h-34.66
				l-14.386,16.742l20.19,20.19c-52.191,5.755-92.925,50.112-92.925,103.809c0,57.592,46.855,104.45,104.449,104.45
				c23.745,0,46.725-8.084,65.187-22.843c18.462,14.759,41.441,22.843,65.188,22.843c57.593,0,104.448-46.858,104.448-104.45
				C428.874,240.847,388.141,196.491,335.952,190.736z M306.443,170.026l5.28-6.146h25.405l5.28,6.146l-17.982,17.982
				L306.443,170.026z M176.068,170.026l5.281-6.146h25.403l5.281,6.146l-17.982,17.982L176.068,170.026z M281.157,227.941
				c13.403-10.767,29.775-16.66,46.637-16.66c42.847,0,77.706,37.282,77.706,83.109c0,45.829-34.859,83.112-77.706,83.112
				c-16.86,0-33.233-5.896-46.637-16.663c12.243-19.725,18.691-42.579,18.691-66.451
				C299.849,270.52,293.401,247.665,281.157,227.941z M257.999,339.5c-12.133-13.996-18.499-29.331-18.499-45.001
				c0-15.668,6.366-31.001,18.499-44.999c12.136,13.998,18.501,29.331,18.501,44.999C276.5,310.169,270.135,325.504,257.999,339.5z
				 M237.321,228.194c-12.587,19.629-19.216,42.374-19.216,66.129c0,23.757,6.629,46.5,19.216,66.129
				c-13.779,10.716-30.609,16.582-47.943,16.582c-44.045,0-79.877-37.104-79.877-82.711c0-45.605,35.832-82.709,79.877-82.709
				C206.712,211.614,223.541,217.479,237.321,228.194z"/>
		</g>
	</g>
	<g display="inline">
		<g>
			<rect x="250.762" y="74.361" fill="#FFFFFF" width="10.477" height="32.615"/>
		</g>
	</g>
	<g display="inline">
		<g>
			
				<rect x="282.853" y="95.627" transform="matrix(-0.4198 0.9076 -0.9076 -0.4198 516.2948 -128.3147)" fill="#FFFFFF" width="32.614" height="10.476"/>
		</g>
	</g>
	<g display="inline">
		<g>
			
				<rect x="207.595" y="84.561" transform="matrix(-0.9076 0.4198 -0.4198 -0.9076 448.3481 103.0635)" fill="#FFFFFF" width="10.476" height="32.614"/>
		</g>
	</g>
</g>
<g id="games">
	<g>
		<g>
			<path fill="#FFFFFF" d="M428.942,276.152l-22.014-78.608c-4.252-15.189-14.756-27.994-28.823-35.132
				c-14.066-7.14-30.606-8.06-45.378-2.521c-10.8,4.053-19.971,11.178-26.515,20.598c0,0-0.031,0.024-0.095,0.024h-95.451
				c-0.058,0-0.088-0.02-0.091-0.02c-6.542-9.424-15.711-16.549-26.518-20.604c-14.772-5.535-31.312-4.618-45.378,2.522
				c-14.063,7.138-24.568,19.943-28.819,35.131L87.848,276.15c-7.272,25.962,4.081,51.044,26.995,59.641
				c5.768,2.163,11.828,3.184,17.871,3.184c19.659-0.001,39.096-10.802,47.389-28.213l10.563-22.104
				c6.509,8.719,16.88,14.129,28.137,14.129c15.352,0,28.806-10.017,33.406-24.331h12.337c4.599,14.314,18.048,24.331,33.397,24.331
				c11.263,0,21.638-5.417,28.146-14.143l10.587,22.11c5.34,11.206,14.619,19.938,26.131,24.587s24.254,4.808,35.881,0.45
				c11.624-4.362,21.12-12.861,26.736-23.934C431.035,300.788,432.284,288.107,428.942,276.152z M412.754,305.432
				c-4.003,7.893-10.772,13.952-19.056,17.06c-8.287,3.105-17.37,2.992-25.575-0.321c-8.206-3.313-14.82-9.537-18.633-17.54
				l-14.765-30.829c-1.625-3.396-5.108-5.452-8.87-5.261c-3.75,0.197-6.98,2.61-8.231,6.144
				c-2.946,8.314-10.856,13.899-19.683,13.899c-9.956,0-18.57-7.077-20.482-16.829c-0.852-4.347-4.68-7.5-9.101-7.5h-19.963
				c-4.422,0-8.25,3.153-9.102,7.502c-1.911,9.75-10.53,16.827-20.492,16.827c-8.825,0-16.733-5.583-19.68-13.896
				c-1.253-3.533-4.486-5.943-8.236-6.141c-3.757-0.203-7.245,1.868-8.868,5.267l-14.732,30.83
				c-7.674,16.109-29.848,24.448-47.454,17.848c-16.099-6.04-23.626-23.521-18.307-42.51l22.014-78.611
				c3.229-11.537,10.889-20.875,21.57-26.296c6.052-3.071,12.544-4.619,19.076-4.619c5,0,10.023,0.906,14.887,2.729
				c8.089,3.036,14.949,8.363,19.838,15.406c2.663,3.833,7.058,6.122,11.756,6.122h95.451c4.696,0,9.09-2.286,11.752-6.117
				c4.896-7.048,11.761-12.376,19.846-15.411c11.215-4.204,23.277-3.535,33.963,1.887c10.682,5.422,18.343,14.76,21.573,26.298
				l22.013,78.607C417.65,288.502,416.756,297.541,412.754,305.432z"/>
		</g>
		<g>
			<g>
				<path fill="#FFFFFF" d="M435.757,284.475l-22.862-84.506c-4.416-16.33-15.327-30.096-29.936-37.77
					c-14.61-7.676-31.79-8.664-47.131-2.71c-11.215,4.357-20.739,12.017-27.537,22.144c0,0-0.034,0.027-0.099,0.027h-99.134
					c-0.06,0-0.092-0.021-0.095-0.021c-6.796-10.132-16.318-17.791-27.542-22.15c-15.341-5.951-32.52-4.965-47.129,2.711
					c-14.606,7.674-25.516,21.44-29.931,37.768L81.5,284.473c-7.553,27.91,4.237,54.875,28.036,64.118
					c5.99,2.325,12.284,3.421,18.56,3.421c20.418,0,40.605-11.612,49.218-30.328l10.97-23.764
					c6.76,9.371,17.531,15.188,29.223,15.188c15.943,0,29.917-10.768,34.694-26.157h12.813c4.778,15.39,18.746,26.157,34.688,26.157
					c11.697,0,22.472-5.823,29.233-15.203l10.993,23.768c5.547,12.049,15.184,21.438,27.139,26.434
					c11.956,4.996,25.191,5.167,37.266,0.484c12.075-4.689,21.937-13.827,27.77-25.73
					C437.931,310.961,439.229,297.33,435.757,284.475z M409.054,312.957c-3.913,7.811-10.521,13.805-18.609,16.881
					c-8.094,3.07-16.965,2.961-24.977-0.318c-8.015-3.278-14.475-9.438-18.195-17.354l-14.42-30.505
					c-1.587-3.358-4.989-5.394-8.663-5.205c-3.661,0.196-6.817,2.582-8.039,6.079c-2.876,8.227-10.603,13.752-19.221,13.752
					c-9.724,0-18.137-7.004-20.003-16.65c-0.831-4.299-4.57-7.422-8.888-7.422h-19.496c-4.318,0-8.057,3.123-8.888,7.424
					c-1.867,9.645-10.283,16.648-20.011,16.648c-8.619,0-16.342-5.523-19.22-13.748c-1.223-3.496-4.38-5.881-8.042-6.077
					c-3.669-0.2-7.076,1.85-8.661,5.214l-14.387,30.503c-7.495,15.938-29.149,24.189-46.344,17.659
					c-15.722-5.979-23.072-23.272-17.877-42.06l21.498-77.78c3.152-11.415,10.634-20.654,21.065-26.019
					c5.911-3.039,12.251-4.569,18.63-4.569c4.883,0,9.788,0.896,14.538,2.7c7.899,3.003,14.598,8.275,19.374,15.243
					c2.601,3.792,6.891,6.056,11.481,6.056h93.214c4.585,0,8.878-2.262,11.477-6.051c4.784-6.973,11.486-12.246,19.382-15.248
					c10.952-4.16,22.732-3.499,33.166,1.867c10.433,5.365,17.914,14.605,21.07,26.021l21.496,77.776
					C413.833,296.206,412.962,305.149,409.054,312.957z"/>
			</g>
		</g>
	</g>
	<g>
		<g>
			<circle fill="#FFFFFF" cx="353.463" cy="201.276" r="8.971"/>
		</g>
	</g>
	<g>
		<g>
			<circle fill="#FFFFFF" cx="353.463" cy="243.641" r="8.972"/>
		</g>
	</g>
	<g>
		<g>
			<circle fill="#FFFFFF" cx="332.281" cy="222.458" r="8.972"/>
		</g>
	</g>
	<g>
		<g>
			<circle fill="#FFFFFF" cx="374.647" cy="222.458" r="8.972"/>
		</g>
	</g>
	<g>
		<g>
			<path fill="#FFFFFF" d="M185.095,215.356h-12.574v-12.573c0-3.922-3.179-7.101-7.101-7.101c-3.921,0-7.101,3.179-7.101,7.101
				v12.573h-12.573c-3.922,0-7.102,3.179-7.102,7.102c0,3.921,3.179,7.101,7.102,7.101h12.573v12.573
				c0,3.922,3.179,7.101,7.101,7.101s7.101-3.179,7.101-7.101v-12.573h12.574c3.921,0,7.101-3.179,7.101-7.101
				C192.196,218.535,189.017,215.356,185.095,215.356z"/>
		</g>
	</g>
	<g>
		<g>
			<path fill="#FFFFFF" d="M242.293,215.356h-7.768c-3.921,0-7.102,3.179-7.102,7.102c0,3.921,3.179,7.101,7.102,7.101h7.768
				c3.921,0,7.101-3.179,7.101-7.101C249.393,218.535,246.214,215.356,242.293,215.356z"/>
		</g>
	</g>
	<g>
		<g>
			<path fill="#FFFFFF" d="M282.709,215.356h-7.769c-3.921,0-7.102,3.179-7.102,7.102c0,3.921,3.179,7.101,7.102,7.101h7.769
				c3.922,0,7.102-3.179,7.102-7.101C289.811,218.535,286.631,215.356,282.709,215.356z"/>
		</g>
	</g>
	<g>
		<g>
			<path fill="#FFFFFF" d="M219.029,251.494c-7.883,0-14.297,6.415-14.297,14.296c0,7.885,6.414,14.299,14.297,14.299
				c7.884,0,14.298-6.414,14.298-14.299C233.326,257.909,226.912,251.494,219.029,251.494z M219.029,269.438
				c-2.009,0-3.646-1.634-3.646-3.647c0-2.008,1.636-3.646,3.646-3.646c2.011,0,3.646,1.636,3.646,3.646
				C222.674,267.802,221.04,269.438,219.029,269.438z"/>
		</g>
	</g>
	<g>
		<g>
			<path fill="#FFFFFF" d="M298.167,251.494c-7.883,0-14.297,6.415-14.297,14.296c0,7.885,6.414,14.299,14.297,14.299
				c7.884,0,14.298-6.414,14.298-14.299C312.465,257.909,306.051,251.494,298.167,251.494z M298.167,269.438
				c-2.009,0-3.646-1.634-3.646-3.647c0-2.008,1.636-3.646,3.646-3.646c2.011,0,3.646,1.636,3.646,3.646
				C301.814,267.802,300.178,269.438,298.167,269.438z"/>
		</g>
	</g>
</g>
<g id="food" display="none">
	<g display="inline">
		<g>
			<path fill="#FFFFFF" d="M209.03,253.077c0.204-3.326,0.409-6.658,0.845-10.022c0.806-7.979,2.539-15.99,4.309-23.783
				c1.077-3.887,2.245-7.727,3.47-11.48c1.565-3.664,3.098-7.308,4.626-10.868c3.459-6.948,7.329-13.44,11.945-18.875
				c1.096-1.401,2.183-2.757,3.247-4.12c1.214-1.214,2.431-2.392,3.602-3.569c2.473-2.235,4.618-4.656,7.086-6.431
				c4.92-3.645,9.274-7.109,13.706-9.254c4.271-2.383,7.935-4.451,11.237-5.619c6.474-2.605,10.148-3.915,10.148-3.915
				s-3.133,2.487-8.609,6.521c-2.83,1.846-5.828,4.76-9.397,7.746c-3.721,2.847-7.091,6.928-11.096,10.841
				c-2.003,1.998-3.559,4.508-5.453,6.819c-0.921,1.177-1.865,2.364-2.839,3.569c-0.787,1.33-1.604,2.662-2.429,4.024
				c-3.536,5.24-6.179,11.391-8.933,17.631c-1.13,3.265-2.272,6.578-3.441,9.924c-0.797,3.478-1.68,6.994-2.643,10.498
				c-1.447,7.199-2.866,14.541-3.479,22.091c-0.426,2.738-0.631,5.5-0.887,8.282c59.994,0.01,106.427,0.047,171.4,0.047
				c0.218-2.848,0.341-5.734,0.341-8.633c0-54.72-39.876-99.788-91.188-105.758c3.313-3.099,5.41-7.494,5.41-12.383
				c0.019-9.396-7.594-16.999-16.972-16.999c-9.388,0-17.009,7.603-17.009,16.999c0,4.899,2.088,9.284,5.41,12.383
				c-51.309,5.97-91.174,51.038-91.174,105.758c0,2.891,0.104,5.737,0.318,8.577C196.919,253.077,203.036,253.077,209.03,253.077z"
				/>
			<rect x="171.561" y="259.408" fill="#FFFFFF" width="242.954" height="21.433"/>
			<path fill="#FFFFFF" d="M314.773,296.055c-12.348,6-55.403,21.527-55.403,21.527l-50.895-3.188c0,0,29.112-8.098,40.397-10.631
				c11.305-2.525,6.388-15.273,0.137-15.273c-6.249,0-60.718,2.25-60.718,2.25l-36.169,13.023l9.572,60.586
				c0,0,7.447-12.748,14.875-12.748c7.455,0,72.033,1.719,80.799,0c8.771-1.736,62.191-38.281,68.589-42.543
				C332.324,304.817,327.169,290.05,314.773,296.055z"/>
			<polygon fill="#FFFFFF" points="103.485,310.276 103.485,388.811 158.899,378.436 145.036,302.966 			"/>
		</g>
	</g>
</g>
<g id="sports" display="none">
	<g transform="translate(-1)" display="inline">
		<g>
			<g>
				<path fill="#FFFFFF" d="M394.272,173.857l-0.717-0.786c-6.737-7.373-17.717-7.39-24.494,0.022l-26.367,29.165
					c-1.39,1.525-3.611,1.586-5.061,0.127l-36.968-37.357c-3.59-3.632-8.263-5.628-13.156-5.628h-54.992
					c-1.298,0-2.541,0.542-3.48,1.515l-46.609,48.439c-6.828,7.479-7.297,19.536-1.04,26.876c3.344,3.924,7.858,6.086,12.711,6.086
					h0.086c4.813-0.027,9.439-2.267,12.635-6.092l32.918-38.131h11.782l-76.82,93.973H127.32c-11.231,0-20.468,9.193-21.028,20.929
					c-0.298,6.131,1.661,11.956,5.514,16.401c3.798,4.383,9.136,6.893,14.657,6.893h70.703c1.394,0,2.728-0.63,3.687-1.752
					l36.226-42.327l30.464,34.869l-9.197,64.332c-2.317,10.658,2.354,21.514,11.105,25.799c2.696,1.326,5.561,1.989,8.408,1.989
					c3.065,0,6.116-0.769,8.925-2.288c5.424-2.941,9.323-8.32,10.741-15.008l15.712-92.242c0.303-1.792-0.218-3.639-1.398-4.926
					L269.905,258.9l33.312-36.405l23.222,25.411c6.484,7.098,17.787,7.098,24.266,0l43.569-47.683
					c3.217-3.521,4.99-8.208,4.99-13.184C399.261,182.06,397.489,177.378,394.272,173.857z"/>
				<path fill="#FFFFFF" d="M338.571,175.984c16.711,0,30.303-14.875,30.303-33.167s-13.592-33.167-30.303-33.167
					s-30.302,14.875-30.302,33.167C308.27,161.109,321.86,175.984,338.571,175.984z"/>
			</g>
		</g>
	</g>
</g>
</svg>
