<?xml version="1.0" encoding="utf-8"?>
<!-- Generator: Adobe Illustrator 16.0.0, SVG Export Plug-In . SVG Version: 6.00 Build 0)  -->
<!DOCTYPE svg PUBLIC "-//W3C//DTD SVG 1.1//EN" "http://www.w3.org/Graphics/SVG/1.1/DTD/svg11.dtd">
<svg version="1.1" xmlns="http://www.w3.org/2000/svg" xmlns:xlink="http://www.w3.org/1999/xlink" x="0px" y="0px" width="512px"
	 height="512px" viewBox="0 0 512 512" enable-background="new 0 0 512 512" xml:space="preserve">
<g id="Layer_3">
</g>
<g id="Layer_4">
</g>
<g id="Layer_2">
	<circle fill="#363636" stroke="#FFFFFF" stroke-width="20" stroke-miterlimit="10" cx="255.762" cy="258.206" r="238.5"/>
</g>
<g id="wedding">
	<g>
		<g>
			<path fill="#FFFFFF" d="M335.952,190.736l20.189-20.19l-14.386-16.742h-34.658l-14.387,16.742l20.189,20.19
				c-19.584,2.173-38.205,9.849-53.66,22.203c-15.456-12.354-34.076-20.03-53.663-22.203l20.191-20.19l-14.386-16.742h-34.66
				l-14.386,16.742l20.19,20.19c-52.191,5.755-92.925,50.112-92.925,103.809c0,57.592,46.855,104.45,104.449,104.45
				c23.745,0,46.725-8.084,65.187-22.843c18.462,14.759,41.441,22.843,65.188,22.843c57.593,0,104.448-46.858,104.448-104.45
				C428.874,240.847,388.141,196.491,335.952,190.736z M306.443,170.026l5.28-6.146h25.405l5.28,6.146l-17.982,17.982
				L306.443,170.026z M176.068,170.026l5.281-6.146h25.403l5.281,6.146l-17.982,17.982L176.068,170.026z M281.157,227.941
				c13.403-10.767,29.775-16.66,46.637-16.66c42.847,0,77.706,37.282,77.706,83.109c0,45.829-34.859,83.112-77.706,83.112
				c-16.86,0-33.233-5.896-46.637-16.663c12.243-19.725,18.691-42.579,18.691-66.451
				C299.849,270.52,293.401,247.665,281.157,227.941z M257.999,339.5c-12.133-13.996-18.499-29.331-18.499-45.001
				c0-15.668,6.366-31.001,18.499-44.999c12.136,13.998,18.501,29.331,18.501,44.999C276.5,310.169,270.135,325.504,257.999,339.5z
				 M237.321,228.194c-12.587,19.629-19.216,42.374-19.216,66.129c0,23.757,6.629,46.5,19.216,66.129
				c-13.779,10.716-30.609,16.582-47.943,16.582c-44.045,0-79.877-37.104-79.877-82.711c0-45.605,35.832-82.709,79.877-82.709
				C206.712,211.614,223.541,217.479,237.321,228.194z"/>
		</g>
	</g>
	<g>
		<g>
			<rect x="250.762" y="74.361" fill="#FFFFFF" width="10.477" height="32.615"/>
		</g>
	</g>
	<g>
		<g>
			
				<rect x="282.853" y="95.627" transform="matrix(-0.4198 0.9076 -0.9076 -0.4198 516.2948 -128.3147)" fill="#FFFFFF" width="32.614" height="10.476"/>
		</g>
	</g>
	<g>
		<g>
			
				<rect x="207.595" y="84.561" transform="matrix(-0.9076 0.4198 -0.4198 -0.9076 448.3481 103.0635)" fill="#FFFFFF" width="10.476" height="32.614"/>
		</g>
	</g>
</g>
<g id="games" display="none">
	<g display="inline">
		<g>
			<path fill="#FFFFFF" d="M435.201,278.545l-23.138-82.623c-4.468-15.965-15.51-29.424-30.295-36.927
				c-14.785-7.505-32.17-8.471-47.695-2.65c-11.351,4.26-20.99,11.749-27.869,21.65c0,0-0.033,0.026-0.1,0.026H205.78
				c-0.061,0-0.093-0.021-0.096-0.021c-6.877-9.905-16.514-17.394-27.872-21.656c-15.526-5.817-32.911-4.854-47.695,2.651
				c-14.782,7.503-25.823,20.962-30.291,36.925l-23.137,82.623c-7.644,27.287,4.289,53.649,28.373,62.686
				c6.062,2.273,12.432,3.346,18.784,3.346c20.663-0.001,41.093-11.354,49.809-29.652l11.102-23.234
				c6.841,9.164,17.742,14.852,29.574,14.852c16.136,0,30.277-10.528,35.112-25.574h12.967
				c4.834,15.046,18.971,25.574,35.104,25.574c11.838,0,22.742-5.694,29.583-14.865l11.128,23.238
				c5.612,11.779,15.365,20.958,27.464,25.844c12.1,4.885,25.493,5.053,37.714,0.473c12.219-4.585,22.199-13.518,28.102-25.156
				C437.403,304.437,438.716,291.11,435.201,278.545z M418.188,309.32c-4.208,8.296-11.322,14.664-20.028,17.931
				c-8.711,3.264-18.258,3.145-26.882-0.338c-8.625-3.482-15.577-10.024-19.584-18.436l-15.519-32.403
				c-1.708-3.569-5.369-5.73-9.323-5.53c-3.941,0.208-7.338,2.743-8.652,6.458c-3.097,8.738-11.41,14.609-20.688,14.609
				c-10.465,0-19.52-7.439-21.528-17.689c-0.896-4.567-4.919-7.883-9.565-7.883h-20.983c-4.648,0-8.67,3.315-9.566,7.885
				c-2.008,10.248-11.067,17.688-21.538,17.688c-9.275,0-17.587-5.869-20.686-14.605c-1.316-3.714-4.714-6.247-8.656-6.455
				c-3.95-0.213-7.615,1.965-9.321,5.536l-15.484,32.405c-8.066,16.932-31.372,25.696-49.878,18.759
				c-16.921-6.349-24.832-24.723-19.242-44.681l23.139-82.626c3.393-12.126,11.445-21.941,22.672-27.64
				c6.36-3.228,13.185-4.854,20.05-4.854c5.256,0,10.535,0.952,15.647,2.869c8.502,3.191,15.712,8.791,20.852,16.193
				c2.799,4.029,7.418,6.434,12.356,6.434h100.325c4.937,0,9.555-2.403,12.352-6.429c5.147-7.408,12.362-13.009,20.86-16.198
				c11.788-4.419,24.466-3.716,35.697,1.983c11.228,5.699,19.28,15.515,22.675,27.642l23.137,82.622
				C423.333,291.524,422.395,301.025,418.188,309.32z"/>
		</g>
		<g>
			<g>
				<path fill="#FFFFFF" d="M442.365,281.293l-24.03-88.823c-4.642-17.163-16.109-31.632-31.465-39.698
					c-15.355-8.068-33.412-9.106-49.537-2.849c-11.788,4.58-21.799,12.63-28.943,23.274c0,0-0.035,0.028-0.104,0.028H204.089
					c-0.063,0-0.097-0.022-0.1-0.022c-7.143-10.649-17.151-18.7-28.948-23.281c-16.125-6.254-34.181-5.219-49.536,2.85
					c-15.352,8.066-26.819,22.535-31.459,39.696l-24.03,88.823c-7.939,29.335,4.454,57.678,29.468,67.392
					c6.296,2.444,12.912,3.597,19.508,3.597c21.46,0,42.679-12.205,51.732-31.878l11.53-24.978
					c7.105,9.851,18.427,15.965,30.716,15.965c16.757,0,31.444-11.317,36.466-27.493h13.467
					c5.021,16.176,19.703,27.493,36.459,27.493c12.295,0,23.619-6.12,30.726-15.979l11.556,24.981
					c5.829,12.664,15.959,22.532,28.524,27.784c12.566,5.251,26.478,5.431,39.169,0.508c12.691-4.929,23.057-14.532,29.188-27.044
					C444.651,309.131,446.015,294.803,442.365,281.293z M424.696,314.379c-4.372,8.92-11.76,15.766-20.802,19.278
					c-9.047,3.508-18.963,3.381-27.919-0.364c-8.959-3.743-16.179-10.777-20.34-19.818l-16.118-34.837
					c-1.774-3.836-5.576-6.161-9.683-5.944c-4.094,0.223-7.621,2.947-8.986,6.942c-3.216,9.394-11.852,15.705-21.486,15.705
					c-10.869,0-20.273-7.998-22.358-19.016c-0.931-4.91-5.11-8.476-9.935-8.476h-21.794c-4.827,0-9.006,3.565-9.936,8.478
					c-2.087,11.016-11.495,19.014-22.369,19.014c-9.634,0-18.268-6.31-21.484-15.701c-1.367-3.993-4.896-6.716-8.99-6.939
					c-4.102-0.229-7.909,2.112-9.681,5.953l-16.082,34.836c-8.377,18.202-32.583,27.626-51.804,20.168
					c-17.574-6.827-25.79-26.579-19.984-48.035l24.031-88.827c3.524-13.036,11.887-23.588,23.546-29.714
					c6.607-3.47,13.694-5.218,20.825-5.218c5.459,0,10.941,1.023,16.251,3.084c8.83,3.43,16.318,9.45,21.656,17.409
					c2.907,4.331,7.704,6.917,12.834,6.917h104.197c5.126,0,9.924-2.583,12.828-6.912c5.347-7.963,12.839-13.985,21.665-17.414
					c12.243-4.751,25.411-3.995,37.074,2.132c11.661,6.128,20.024,16.68,23.552,29.717l24.029,88.823
					C430.038,295.249,429.065,305.461,424.696,314.379z"/>
			</g>
		</g>
	</g>
	<g display="inline">
		<g>
			<circle fill="#FFFFFF" cx="355.869" cy="199.844" r="9.43"/>
		</g>
	</g>
	<g display="inline">
		<g>
			<circle fill="#FFFFFF" cx="355.869" cy="244.372" r="9.431"/>
		</g>
	</g>
	<g display="inline">
		<g>
			<circle fill="#FFFFFF" cx="333.605" cy="222.108" r="9.43"/>
		</g>
	</g>
	<g display="inline">
		<g>
			<circle fill="#FFFFFF" cx="378.134" cy="222.108" r="9.43"/>
		</g>
	</g>
	<g display="inline">
		<g>
			<path fill="#FFFFFF" d="M178.902,214.643h-13.216v-13.215c0-4.123-3.341-7.464-7.464-7.464c-4.122,0-7.463,3.341-7.463,7.464
				v13.215h-13.215c-4.123,0-7.464,3.341-7.464,7.464c0,4.122,3.341,7.463,7.464,7.463h13.215v13.216
				c0,4.122,3.341,7.464,7.463,7.464s7.464-3.341,7.464-7.464v-13.216h13.216c4.122,0,7.464-3.341,7.464-7.463
				C186.365,217.984,183.024,214.643,178.902,214.643z"/>
		</g>
	</g>
	<g display="inline">
		<g>
			<path fill="#FFFFFF" d="M239.021,214.643h-8.165c-4.122,0-7.464,3.341-7.464,7.464c0,4.122,3.341,7.463,7.464,7.463h8.165
				c4.122,0,7.463-3.341,7.463-7.463C246.484,217.984,243.142,214.643,239.021,214.643z"/>
		</g>
	</g>
	<g display="inline">
		<g>
			<path fill="#FFFFFF" d="M281.501,214.643h-8.165c-4.121,0-7.464,3.341-7.464,7.464c0,4.122,3.341,7.463,7.464,7.463h8.165
				c4.122,0,7.464-3.341,7.464-7.463C288.965,217.984,285.623,214.643,281.501,214.643z"/>
		</g>
	</g>
	<g display="inline">
		<g>
			<path fill="#FFFFFF" d="M214.569,254.627c-8.286,0-15.027,6.742-15.027,15.027c0,8.287,6.742,15.028,15.027,15.028
				c8.287,0,15.028-6.741,15.028-15.028C229.596,261.369,222.855,254.627,214.569,254.627z M214.569,273.488
				c-2.112,0-3.833-1.719-3.833-3.834c0-2.111,1.72-3.832,3.833-3.832c2.114,0,3.833,1.719,3.833,3.832
				C218.401,271.767,216.682,273.488,214.569,273.488z"/>
		</g>
	</g>
	<g display="inline">
		<g>
			<path fill="#FFFFFF" d="M297.749,254.627c-8.286,0-15.027,6.742-15.027,15.027c0,8.287,6.741,15.028,15.027,15.028
				c8.285,0,15.027-6.741,15.027-15.028C312.777,261.369,306.034,254.627,297.749,254.627z M297.749,273.488
				c-2.112,0-3.832-1.719-3.832-3.834c0-2.111,1.719-3.832,3.832-3.832s3.832,1.719,3.832,3.832S299.863,273.488,297.749,273.488z"
				/>
		</g>
	</g>
</g>
</svg>
